<?xml version="1.0" encoding="utf-8"?>
<!-- Generator: Adobe Illustrator 26.4.1, SVG Export Plug-In . SVG Version: 6.00 Build 0)  -->
<svg version="1.1" id="Layer_1" xmlns="http://www.w3.org/2000/svg" xmlns:xlink="http://www.w3.org/1999/xlink" x="0px" y="0px"
	 viewBox="0 0 60.9 21.4" style="enable-background:new 0 0 60.9 21.4;" xml:space="preserve">
<style type="text/css">
	.st0{fill:#A8800E;}
	.st1{fill:#EEEEEE;}
	.st2{fill:#FFFFFF;}
</style>
<path class="st0" d="M9.7,0.3h9.7v9.7c0,5.4-4.3,9.7-9.7,9.7H0V10C0,4.6,4.3,0.3,9.7,0.3z"/>
<path class="st0" d="M23,5c0.9,0,1.4-0.4,1.4-0.9s-0.3-0.8-1-0.9L22.3,3C21.4,2.8,21,2.3,21,1.6c0-0.9,0.7-1.6,2-1.6s2,0.6,2.1,1.8
	h-0.7c0-0.9-0.6-1.3-1.4-1.3S21.7,1,21.7,1.5s0.3,0.7,1,0.8l1,0.2c1,0.2,1.5,0.6,1.5,1.5S24.3,5.6,23,5.6S20.8,5,20.8,3.7h0.7
	c0,0.5,0.2,0.6,0.5,0.9S22.6,5,23,5z"/>
<path class="st0" d="M27.9,1.6c1.1,0,1.7,0.8,1.7,2s-0.6,2-1.7,2c-0.7,0-1.2-0.2-1.3-0.7v2.1h-0.7V1.8h0.7v0.6
	C26.7,1.9,27.2,1.7,27.9,1.6L27.9,1.6z M27.7,5c0.7,0,1.1-0.5,1.1-1.4s-0.4-1.4-1.1-1.4s-1.2,0.5-1.2,1.3v0.2C26.5,4.5,27,5,27.7,5z
	"/>
<path class="st0" d="M31.9,5.6c-1,0-1.8-0.8-1.8-1.9s0.8-2,1.9-2s1.8,0.8,1.8,1.8v0.3h-3C30.8,4.5,31.3,5,32,5c0.6,0,1-0.2,1.1-0.7
	h0.6c-0.1,0.4-0.3,0.7-0.6,0.9S32.4,5.6,31.9,5.6L31.9,5.6z M31.9,2.2c-0.6,0-1.1,0.5-1.2,1.1H33c0-0.3-0.2-0.6-0.3-0.8
	S32.3,2.2,31.9,2.2L31.9,2.2z"/>
<path class="st0" d="M36.1,5.6c-1,0-1.8-0.8-1.8-1.9s0.8-2,1.9-2s1.8,0.8,1.8,1.8v0.3h-3C35,4.5,35.5,5,36.2,5c0.6,0,1-0.2,1.1-0.7
	h0.6c-0.1,0.4-0.3,0.7-0.6,0.9S36.6,5.6,36.1,5.6L36.1,5.6z M36.1,2.2c-0.7,0-1.1,0.5-1.2,1.1h2.3c0-0.3-0.2-0.6-0.3-0.8
	S36.5,2.2,36.1,2.2L36.1,2.2z"/>
<path class="st0" d="M40.1,5.6c-1.1,0-1.7-0.8-1.7-1.9s0.6-2,1.7-2c0.7,0,1.2,0.2,1.3,0.7V0.1h0.7v5.3h-0.7V4.8
	C41.2,5.3,40.7,5.6,40.1,5.6L40.1,5.6z M40.2,2.2c-0.7,0-1.1,0.5-1.1,1.4S39.5,5,40.2,5s1.2-0.5,1.2-1.3V3.5
	C41.4,2.7,40.9,2.2,40.2,2.2z"/>
<path class="st0" d="M45.4,0.1v4.7h3v0.6h-3.7V0.1H45.4L45.4,0.1z"/>
<path class="st0" d="M49,0.1h0.7v0.8H49V0.1z M49.7,1.7v3.7H49V1.7H49.7z"/>
<path class="st0" d="M52.2,6.9c-0.4,0-0.8-0.1-1.1-0.2c-0.3-0.2-0.5-0.4-0.6-0.9h0.7c0,0.2,0.2,0.4,0.4,0.5s0.5,0.1,0.7,0.1
	c0.4,0,0.7-0.2,0.9-0.4s0.3-0.4,0.3-0.9V4.9h0c-0.2,0.5-0.7,0.7-1.3,0.7c-0.6,0-1-0.2-1.3-0.6c-0.3-0.3-0.5-0.8-0.5-1.3
	c0-0.5,0.1-1,0.4-1.3c0.3-0.4,0.8-0.7,1.5-0.7c0.5,0,0.9,0.2,1.2,0.6l0,0V1.7h0.7v3.5C54.1,6.3,53.5,6.9,52.2,6.9z M53.2,4.6
	c0.2-0.3,0.3-0.6,0.3-1c0-0.3-0.1-0.7-0.3-0.9s-0.5-0.4-0.9-0.4s-0.7,0.2-0.9,0.4s-0.3,0.6-0.3,1s0.1,0.7,0.2,1S51.8,5,52.3,5
	S53,4.8,53.2,4.6z"/>
<path class="st0" d="M54.7,5.4V0.1h0.7v2.2c0.2-0.5,0.7-0.7,1.2-0.7c0.9,0,1.3,0.6,1.3,1.5v2.3h-0.7V3.2c0-0.6-0.3-1-0.9-1
	s-1,0.5-1,1.1v2.1H54.7z"/>
<path class="st0" d="M58.5,2.2V1.7h0.6v-1h0.7v1h1v0.5h-1v2.2c0,0.7,0.6,0.5,1.2,0.2v0.5c-0.5,0.4-1.8,0.6-1.8-0.7V2.2H58.5z"/>
<path class="st0" d="M24.6,12.7h-3.8V7.4h3.7V8h-3v1.7h2.8v0.6h-2.8v1.8h3.1L24.6,12.7L24.6,12.7z"/>
<path class="st0" d="M25.5,12.7V9h0.7v0.7c0.2-0.4,0.7-0.8,1.2-0.8c0.9,0,1.4,0.6,1.4,1.5v2.3H28v-2.2c0-0.6-0.3-1-0.9-1
	s-1,0.4-1,1.1v2.1L25.5,12.7L25.5,12.7z"/>
<path class="st0" d="M31.2,12.8c-1,0-1.8-0.8-1.8-1.9s0.8-2,1.9-2c1.1,0,1.8,0.8,1.8,1.9v0.3h-3c0,0.7,0.5,1.2,1.2,1.2
	c0.6,0,1-0.2,1.1-0.7h0.6c-0.1,0.4-0.3,0.7-0.6,0.9S31.8,12.9,31.2,12.8L31.2,12.8z M31.3,9.5c-0.6,0-1.1,0.5-1.2,1.1h2.3
	c0-0.3-0.2-0.6-0.3-0.8S31.6,9.5,31.3,9.5L31.3,9.5z"/>
<path class="st0" d="M34.5,9.8L34.5,9.8C34.8,9.2,35.2,8.9,36,9v0.6c-0.5,0-0.9,0.1-1.1,0.4s-0.3,0.6-0.3,1.1v1.6h-0.7V9h0.7
	L34.5,9.8L34.5,9.8z"/>
<path class="st0" d="M38.2,14.2c-0.4,0-0.8-0.1-1.1-0.2c-0.3-0.2-0.5-0.4-0.6-0.9h0.7c0,0.2,0.2,0.4,0.4,0.5s0.5,0.1,0.7,0.1
	c0.4,0,0.7-0.1,0.9-0.4s0.3-0.4,0.3-0.9v-0.2h0c-0.2,0.5-0.7,0.7-1.3,0.7c-0.6,0-1-0.2-1.3-0.6c-0.3-0.4-0.5-0.8-0.5-1.3
	c0-0.4,0.1-0.9,0.4-1.3c0.3-0.4,0.8-0.7,1.5-0.7c0.5,0,0.9,0.2,1.2,0.6l0,0V9h0.7v3.5C40.1,13.6,39.5,14.2,38.2,14.2z M39.2,11.8
	c0.2-0.3,0.3-0.6,0.3-1c0-0.3-0.1-0.7-0.3-0.9c-0.2-0.3-0.5-0.4-0.9-0.4s-0.7,0.2-0.9,0.4c-0.2,0.3-0.3,0.6-0.3,1s0.1,0.7,0.2,1
	s0.5,0.5,0.9,0.5S39,12.1,39.2,11.8z"/>
<path class="st0" d="M41.2,14.2l0.6-1.4L40.3,9H41l1.2,2.8L43.4,9h0.7l-2.1,5.1C41.9,14.2,41.2,14.2,41.2,14.2z"/>
<g>
	<path class="st1" d="M22.6,18.2C22.6,18.2,22.5,18.2,22.6,18.2c-0.1,0-0.1-0.1-0.2-0.1h-1.5l0-0.1l0.1,0c0.1,0,0.2-0.1,0.2-0.1
		c0,0,0-0.1,0-0.2v-1.8c0-0.1,0-0.2,0-0.2c0,0-0.1-0.1-0.2-0.1l-0.1,0l0-0.1h0.8l0.1,0.1l-0.1,0.1c-0.1,0.1-0.1,0.2-0.1,0.3
		c0,0.1,0,0.2,0,0.4v1.5c0,0.1,0,0.1,0,0.2c0,0,0,0.1,0.1,0.1c0,0,0.1,0,0.2,0h0.3c0.1,0,0.2,0,0.3-0.1c0.1,0,0.1-0.1,0.1-0.3l0-0.1
		l0.1,0v0.7L22.6,18.2L22.6,18.2L22.6,18.2z"/>
	<path class="st1" d="M23.2,18.1c0-0.1-0.1-0.2-0.1-0.3v-1.2c0,0,0-0.1,0-0.1c0,0,0,0-0.1,0h-0.2l0-0.1c0.1-0.1,0.2-0.1,0.3-0.2
		c0.1,0,0.2-0.1,0.2-0.1c0,0,0.1,0,0.1,0s0,0,0,0.1v1.5c0,0.1,0,0.1,0.1,0.1c0.1,0,0.1,0,0.2-0.1l0.1,0.1c-0.1,0.1-0.1,0.1-0.2,0.2
		c-0.1,0-0.1,0.1-0.2,0.1C23.4,18.2,23.3,18.2,23.2,18.1L23.2,18.1z M23.2,15.8c-0.1-0.1-0.1-0.1-0.1-0.2s0-0.1,0.1-0.2
		c0.1-0.1,0.1-0.1,0.2-0.1s0.1,0,0.2,0.1c0.1,0.1,0.1,0.1,0.1,0.2s0,0.1-0.1,0.2c-0.1,0.1-0.1,0.1-0.2,0.1
		C23.3,15.9,23.2,15.8,23.2,15.8z"/>
	<path class="st1" d="M24.7,19.1c-0.1-0.1-0.2-0.1-0.2-0.2c0-0.1-0.1-0.2-0.1-0.3c0-0.1,0-0.2,0.1-0.3c0.1-0.1,0.2-0.1,0.4-0.1
		c0,0,0,0,0.1,0c0,0,0,0,0,0s0,0-0.1,0.1c0,0-0.1,0.1-0.1,0.1c0,0.1,0,0.1,0,0.2c0,0.1,0,0.2,0.1,0.3C24.9,19,25,19,25.1,19
		c0.2,0,0.3-0.1,0.3-0.2c0.1-0.1,0.1-0.3,0.1-0.5v-0.6c-0.1,0.1-0.2,0.2-0.3,0.3c-0.1,0.1-0.2,0.1-0.4,0.1s-0.2,0-0.3-0.1
		c-0.1-0.1-0.2-0.2-0.3-0.3s-0.1-0.3-0.1-0.5c0-0.3,0.1-0.6,0.3-0.8c0.2-0.2,0.4-0.3,0.7-0.3c0.1,0,0.2,0,0.4,0c0,0,0.1,0,0.2,0
		c0.1,0,0.1,0,0.2,0l0,0l0,0.1c0,0,0,0.1,0,0.1c0,0,0,0,0,0.1v1.7c0,0.3-0.1,0.6-0.2,0.7c-0.2,0.2-0.4,0.3-0.6,0.3
		C24.9,19.2,24.8,19.2,24.7,19.1L24.7,19.1z M25.3,17.7c0.1-0.1,0.2-0.1,0.2-0.3v-0.9c-0.1-0.1-0.2-0.1-0.4-0.1
		c-0.2,0-0.3,0.1-0.4,0.2c-0.1,0.1-0.2,0.3-0.2,0.6c0,0.2,0,0.4,0.1,0.5s0.2,0.1,0.3,0.1C25.1,17.8,25.2,17.8,25.3,17.7z"/>
	<path class="st1" d="M28,18.1c0-0.1-0.1-0.2-0.1-0.3v-0.9c0-0.1,0-0.2-0.1-0.3c-0.1-0.1-0.1-0.1-0.3-0.1s-0.2,0-0.3,0.1
		c-0.1,0.1-0.2,0.2-0.2,0.4c0,0.2-0.1,0.3-0.1,0.5c0,0.1,0,0.2,0,0.3c0,0.1,0.1,0.1,0.1,0.2l0,0.1l0,0.1h-0.7l0-0.1l0.1,0
		c0.1,0,0.1,0,0.1-0.1c0,0,0-0.1,0-0.2v-2.2c0,0,0-0.1,0-0.1c0,0,0,0-0.1,0h-0.2l0-0.1c0.1-0.1,0.2-0.1,0.3-0.2s0.2-0.1,0.2-0.1
		c0,0,0.1,0,0.1,0c0,0,0,0.1,0,0.1v1.5c0.1-0.2,0.2-0.3,0.3-0.4c0.1-0.1,0.3-0.2,0.4-0.2c0.2,0,0.3,0.1,0.4,0.2
		c0.1,0.1,0.1,0.3,0.1,0.5v0.9c0,0.1,0,0.1,0.1,0.1c0.1,0,0.1,0,0.2-0.1l0.1,0.1c-0.1,0.1-0.1,0.1-0.2,0.2c-0.1,0-0.1,0.1-0.2,0.1
		C28.1,18.2,28,18.2,28,18.1z"/>
	<path class="st1" d="M29.2,18.1c-0.1-0.1-0.1-0.2-0.1-0.3v-1.4h-0.3c0-0.1,0-0.1,0-0.1c0,0,0,0,0.1,0c0.1,0,0.2-0.1,0.3-0.2
		c0.1-0.1,0.1-0.2,0.1-0.3c0,0,0-0.1,0-0.1c0,0,0.1,0,0.1,0v0.5h0.5c0,0.1,0,0.1,0,0.1c0,0,0,0.1-0.1,0.1h-0.4v1.2
		c0,0.1,0,0.1,0,0.2c0,0,0.1,0,0.1,0c0.1,0,0.2,0,0.3-0.1l0.1,0.1c-0.1,0.1-0.1,0.2-0.2,0.2c-0.1,0.1-0.2,0.1-0.3,0.1
		C29.3,18.2,29.2,18.2,29.2,18.1L29.2,18.1z"/>
	<path class="st1" d="M31,18.9c-0.1-0.1-0.1-0.2-0.1-0.3c0-0.1,0-0.2,0.1-0.2c0.1-0.1,0.2-0.1,0.3-0.1c0,0,0.1,0,0.1,0c0,0,0,0,0,0
		c0,0,0,0.1-0.1,0.1c0,0,0,0.1,0,0.1c0,0.1,0,0.1,0.1,0.2c0,0,0.1,0.1,0.2,0.1c0.1,0,0.1,0,0.2-0.1c0.1-0.1,0.1-0.2,0.1-0.3v-2h-0.3
		c0-0.1,0-0.1,0-0.1c0,0,0,0,0.1,0l0.3-0.1c0-0.3,0.1-0.6,0.2-0.8c0.1-0.2,0.3-0.3,0.5-0.3c0.2,0,0.3,0,0.4,0.1
		c0.1,0.1,0.2,0.2,0.2,0.3c0,0.1,0,0.2-0.1,0.3c-0.1,0.1-0.2,0.1-0.3,0.1c0,0-0.1,0-0.1,0c0,0,0,0,0-0.1c0,0,0-0.1,0-0.1
		c0,0,0-0.1,0-0.2c0-0.1,0-0.1-0.1-0.2c0,0-0.1-0.1-0.2-0.1c-0.1,0-0.2,0.1-0.3,0.2s-0.1,0.3-0.1,0.5v0.3h0.5c0,0.1,0,0.1,0,0.1
		c0,0,0,0.1-0.1,0.1h-0.5v1.7c0,0.3-0.1,0.5-0.2,0.6C31.8,19,31.6,19,31.4,19C31.2,19,31.1,19,31,18.9L31,18.9z"/>
	<path class="st1" d="M33,17.9c-0.2-0.2-0.3-0.4-0.3-0.7c0-0.3,0.1-0.5,0.3-0.7s0.4-0.3,0.7-0.3c0.2,0,0.4,0,0.5,0.1
		c0.1,0.1,0.3,0.2,0.3,0.3c0.1,0.2,0.1,0.3,0.1,0.5s0,0.4-0.1,0.5s-0.2,0.3-0.3,0.4c-0.1,0.1-0.3,0.1-0.5,0.1
		C33.4,18.2,33.2,18.1,33,17.9L33,17.9z M34.1,17.8c0.1-0.1,0.2-0.3,0.2-0.6c0-0.1,0-0.2-0.1-0.4c0-0.1-0.1-0.2-0.2-0.3
		c-0.1-0.1-0.2-0.1-0.3-0.1c-0.2,0-0.3,0.1-0.4,0.2s-0.2,0.3-0.2,0.6c0,0.2,0,0.4,0.1,0.6c0.1,0.1,0.2,0.2,0.4,0.2
		C33.8,18,34,17.9,34.1,17.8L34.1,17.8z"/>
	<path class="st1" d="M35,18L35,18c0.1,0,0.2-0.1,0.2-0.1c0,0,0-0.1,0-0.2v-1.1c0,0,0-0.1,0-0.1c0,0,0,0-0.1,0H35l0-0.1
		c0.1-0.1,0.2-0.1,0.3-0.2c0.1,0,0.2-0.1,0.3-0.1c0,0,0.1,0,0.1,0s0,0.1,0,0.1v0.4h0c0-0.2,0.1-0.3,0.2-0.4s0.2-0.2,0.3-0.2
		c0.1,0,0.2,0,0.3,0.1c0.1,0.1,0.1,0.2,0.1,0.3c0,0.1,0,0.2-0.1,0.2c-0.1,0.1-0.2,0.1-0.3,0.1c-0.1,0-0.1,0-0.1,0c0,0,0,0,0-0.1
		c0,0,0-0.1,0.1-0.1c0,0,0-0.1,0-0.1c0,0,0-0.1,0-0.1s-0.1,0-0.1,0c-0.1,0-0.1,0-0.2,0.1c-0.1,0.1-0.1,0.2-0.2,0.4
		c0,0.2-0.1,0.4-0.1,0.6c0,0.1,0,0.2,0,0.3c0,0.1,0.1,0.1,0.1,0.2l0,0.1l0,0.1H35L35,18L35,18z"/>
	<path class="st1" d="M38.2,18.1c0-0.1-0.1-0.2-0.1-0.3v-2.2c0,0,0-0.1,0-0.1c0,0,0,0-0.1,0h-0.2l0-0.1c0.1-0.1,0.2-0.1,0.3-0.2
		s0.2-0.1,0.3-0.1c0,0,0.1,0,0.1,0c0,0,0,0.1,0,0.1v2.5c0,0,0,0.1,0,0.1c0,0,0,0,0.1,0c0.1,0,0.1,0,0.2-0.1l0.1,0.1
		c-0.1,0.1-0.1,0.1-0.2,0.2c-0.1,0-0.2,0.1-0.2,0.1C38.3,18.2,38.3,18.2,38.2,18.1L38.2,18.1z"/>
	<path class="st1" d="M39.4,18.1c0-0.1-0.1-0.2-0.1-0.3v-1.2c0,0,0-0.1,0-0.1c0,0,0,0-0.1,0h-0.2l0-0.1c0.1-0.1,0.2-0.1,0.3-0.2
		c0.1,0,0.2-0.1,0.2-0.1c0,0,0.1,0,0.1,0s0,0,0,0.1v1.5c0,0.1,0,0.1,0.1,0.1c0.1,0,0.1,0,0.2-0.1l0.1,0.1c-0.1,0.1-0.1,0.1-0.2,0.2
		c-0.1,0-0.1,0.1-0.2,0.1C39.5,18.2,39.5,18.2,39.4,18.1L39.4,18.1z M39.4,15.8c-0.1-0.1-0.1-0.1-0.1-0.2s0-0.1,0.1-0.2
		c0.1-0.1,0.1-0.1,0.2-0.1s0.1,0,0.2,0.1c0.1,0.1,0.1,0.1,0.1,0.2s0,0.1-0.1,0.2c-0.1,0.1-0.1,0.1-0.2,0.1
		C39.5,15.9,39.4,15.8,39.4,15.8z"/>
	<path class="st1" d="M39.9,18.9c-0.1-0.1-0.1-0.2-0.1-0.3c0-0.1,0-0.2,0.1-0.2c0.1-0.1,0.2-0.1,0.3-0.1c0,0,0.1,0,0.1,0
		c0,0,0,0,0,0c0,0,0,0.1-0.1,0.1c0,0,0,0.1,0,0.1c0,0.1,0,0.1,0.1,0.2s0.1,0.1,0.2,0.1c0.1,0,0.1,0,0.2-0.1c0.1-0.1,0.1-0.2,0.1-0.3
		v-2h-0.3c0-0.1,0-0.1,0-0.1c0,0,0,0,0.1,0l0.3-0.1c0-0.3,0.1-0.6,0.2-0.8c0.1-0.2,0.3-0.3,0.5-0.3c0.2,0,0.3,0,0.4,0.1
		s0.2,0.2,0.2,0.3c0,0.1,0,0.2-0.1,0.3c-0.1,0.1-0.2,0.1-0.3,0.1c0,0-0.1,0-0.1,0c0,0,0,0,0-0.1c0,0,0-0.1,0-0.1c0,0,0-0.1,0-0.2
		c0-0.1,0-0.1-0.1-0.2c0,0-0.1-0.1-0.2-0.1c-0.1,0-0.2,0.1-0.3,0.2c-0.1,0.1-0.1,0.3-0.1,0.5v0.3h0.5c0,0.1,0,0.1,0,0.1
		c0,0,0,0.1-0.1,0.1h-0.5v1.7c0,0.3-0.1,0.5-0.2,0.6C40.6,19,40.4,19,40.2,19C40.1,19,39.9,19,39.9,18.9L39.9,18.9z"/>
	<path class="st1" d="M42,18.1c-0.1-0.1-0.2-0.2-0.3-0.3c-0.1-0.1-0.1-0.3-0.1-0.5s0-0.4,0.1-0.5s0.2-0.3,0.4-0.4
		c0.2-0.1,0.3-0.1,0.5-0.1c0.2,0,0.4,0.1,0.5,0.2s0.2,0.2,0.2,0.4c0,0.1,0,0.2-0.1,0.3s-0.1,0.2-0.3,0.2c-0.1,0.1-0.2,0.1-0.4,0.1
		c-0.1,0-0.2,0-0.3,0c-0.1,0-0.1-0.1-0.1-0.1c0,0,0,0,0-0.1c0,0,0,0,0,0c0,0,0,0,0.1,0c0,0,0.1,0,0.2,0c0.2,0,0.3,0,0.4-0.1
		c0.1-0.1,0.1-0.2,0.1-0.3c0-0.1,0-0.2-0.1-0.3c-0.1-0.1-0.2-0.1-0.3-0.1c-0.2,0-0.3,0.1-0.4,0.2C42,16.7,42,16.9,42,17.2
		c0,0.2,0,0.4,0.1,0.5c0.1,0.1,0.2,0.2,0.4,0.2c0.2,0,0.4-0.1,0.6-0.2c0,0,0,0,0,0c0,0,0,0,0.1,0c0,0,0,0,0,0.1c0,0,0,0,0,0l0,0
		c-0.1,0.1-0.2,0.2-0.3,0.3c-0.1,0.1-0.3,0.1-0.4,0.1C42.3,18.2,42.1,18.1,42,18.1L42,18.1z"/>
</g>
<path class="st2" d="M6.4,16c-0.2-0.1-0.2-0.2-0.1-0.4c0.7-1.7,1.4-3.4,2.2-5.1c0,0,0-0.1,0.1-0.1H8.4c-0.6,0-1.2,0-1.9,0
	c-0.2,0-0.3-0.1-0.2-0.4c1-2,2-4,3-5.9C9.3,4,9.4,3.9,9.5,3.9c1,0,2.1,0,3.1,0c0.1,0,0.2,0,0.2,0.1s0,0.2,0,0.3
	c-0.7,1.2-1.5,2.3-2.2,3.5c0,0-0.1,0.1-0.1,0.2c0.1,0,0.1,0,0.1,0c0.7,0,1.4,0,2.1,0c0,0,0.1,0,0.1,0c0.1,0,0.2,0,0.2,0.1
	c0,0.1,0,0.2-0.1,0.2c-0.3,0.3-0.6,0.6-0.8,1c-1.8,2.2-3.7,4.4-5.5,6.5c-0.1,0.1-0.1,0.1-0.2,0.2L6.4,16L6.4,16z"/>
</svg>
