<?xml version="1.0" encoding="UTF-8"?><svg id="Layer_1" xmlns="http://www.w3.org/2000/svg" viewBox="0 0 111.7 19.82"><defs><style>.cls-1{fill:#fff;}.cls-2{opacity:.49;}.cls-3{fill:#a8800e;}</style></defs><path class="cls-3" d="M9.7,0h9.67V9.67c0,5.35-4.34,9.7-9.7,9.7H0V9.7C0,4.34,4.34,0,9.7,0Z"/><g><path class="cls-3" d="M23.41,7.66c1.22,0,1.9-.51,1.9-1.26s-.43-1.08-1.44-1.27l-1.5-.29c-1.26-.24-1.89-.9-1.89-1.99,0-1.33,1.03-2.21,2.79-2.21s2.89,.87,2.91,2.58h-.95c-.03-1.25-.8-1.79-1.97-1.79s-1.77,.53-1.77,1.3,.4,1.03,1.37,1.21l1.37,.26c1.41,.27,2.07,.87,2.07,2.14s-1.14,2.13-2.92,2.13-3.12-.84-3.12-2.61h.94c.03,.67,.25,.9,.67,1.26s.93,.54,1.54,.54Z"/><path class="cls-3" d="M30.28,2.96c1.52-.01,2.41,1.15,2.41,2.76s-.88,2.78-2.4,2.78c-.93,0-1.64-.33-1.88-1.03v2.92h-1V3.11h.97v.91c.26-.7,.97-1.05,1.89-1.05Zm-.2,4.73c1,0,1.58-.75,1.58-1.97s-.58-1.96-1.58-1.96-1.69,.7-1.69,1.82v.3c0,1.12,.69,1.81,1.69,1.81Z"/><path class="cls-3" d="M35.98,8.48c-1.44,0-2.6-1.07-2.6-2.7s1.12-2.84,2.68-2.84,2.49,1.11,2.49,2.62v.39h-4.18c.05,1.01,.77,1.73,1.72,1.74,.86,0,1.39-.23,1.61-1.04h.83c-.14,.6-.42,.99-.84,1.32s-.99,.5-1.71,.5Zm.07-4.78c-.92,0-1.52,.7-1.65,1.61h3.19c-.02-.46-.21-.84-.47-1.15-.26-.31-.61-.46-1.08-.46Z"/><path class="cls-3" d="M41.88,8.48c-1.44,0-2.6-1.07-2.6-2.7s1.12-2.84,2.68-2.84,2.49,1.11,2.49,2.62v.39h-4.18c.05,1.01,.77,1.73,1.72,1.74,.86,0,1.39-.23,1.61-1.04h.83c-.14,.6-.42,.99-.84,1.32s-.99,.5-1.71,.5Zm.07-4.78c-.92,0-1.52,.7-1.65,1.61h3.19c-.02-.46-.21-.84-.47-1.15s-.62-.46-1.08-.46Z"/><path class="cls-3" d="M47.56,8.48c-1.52-.01-2.41-1.15-2.41-2.76s.88-2.79,2.4-2.78c.93,0,1.64,.33,1.88,1.03V.78h1v7.56h-.97v-.91c-.26,.7-.97,1.06-1.89,1.05Zm.2-4.73c-1,0-1.58,.75-1.58,1.97s.58,1.96,1.58,1.96,1.69-.7,1.69-1.82v-.3c0-1.12-.69-1.81-1.69-1.81Z"/><path class="cls-3" d="M55.04,.78V7.47h4.21v.86h-5.26V.78h1.04Z"/><path class="cls-3" d="M60.21,.78h1.03V1.9h-1.03V.78Zm1.02,2.31v5.24h-1V3.09h1Z"/><path class="cls-3" d="M64.78,10.39c-.53,0-1.12-.11-1.56-.36-.45-.26-.77-.64-.8-1.22h.93c.01,.32,.25,.54,.53,.68s.64,.19,.96,.19c.62,0,1.04-.22,1.31-.57s.4-.63,.4-1.22v-.35h-.02c-.33,.66-1.04,.96-1.79,.96-.84,0-1.48-.31-1.9-.81-.42-.49-.64-1.16-.64-1.9,0-.63,.16-1.35,.57-1.9,.4-.54,1.09-.94,2.07-.94,.71,0,1.28,.3,1.62,.9h.01v-.77h.96V8c0,1.52-.83,2.4-2.65,2.4Zm1.34-3.32c.26-.39,.39-.91,.39-1.41,0-.47-.11-.94-.36-1.32s-.67-.6-1.26-.6-1.03,.23-1.3,.59-.39,.85-.39,1.36,.08,.99,.33,1.38,.66,.66,1.27,.66,1.05-.27,1.32-.66Z"/><path class="cls-3" d="M68.27,8.34V.78h1V3.96c.26-.64,.95-1.02,1.74-1.02,1.31,0,1.92,.85,1.92,2.14v3.25h-1v-3.17c0-.9-.42-1.42-1.24-1.42s-1.42,.64-1.42,1.58v3.01h-1Z"/><path class="cls-3" d="M73.6,3.81v-.72h.83V1.64h.95v1.45h1.48v.72h-1.48v3.18c0,.91,.9,.74,1.63,.32v.72c-.78,.59-2.62,.9-2.62-.93V3.81h-.79Z"/><path class="cls-3" d="M84.24,8.46h-5.38V.91h5.28v.86h-4.27v2.38h3.9v.85h-3.9v2.61h4.38v.86Z"/><path class="cls-3" d="M85.38,8.46V3.22h1v.94c.26-.64,.95-1.08,1.74-1.08,1.31,0,1.92,.85,1.92,2.14v3.25h-1v-3.17c0-.9-.42-1.42-1.24-1.42s-1.42,.64-1.42,1.58v3.01h-1Z"/><path class="cls-3" d="M93.59,8.61c-1.44,0-2.6-1.07-2.6-2.7s1.12-2.84,2.68-2.84,2.49,1.11,2.49,2.62v.39h-4.18c.05,1.01,.77,1.73,1.72,1.74,.86,0,1.39-.23,1.61-1.04h.83c-.14,.6-.42,.99-.84,1.32-.42,.33-.99,.5-1.71,.5Zm.07-4.78c-.92,0-1.52,.7-1.65,1.61h3.19c-.02-.46-.21-.84-.47-1.15-.26-.31-.62-.46-1.08-.46Z"/><path class="cls-3" d="M98.16,4.33h.02c.47-.85,1.03-1.24,2.07-1.21v.92c-.77,0-1.26,.18-1.6,.54-.34,.36-.47,.88-.47,1.55v2.33h-.98V3.23h.96v1.1Z"/><path class="cls-3" d="M103.47,10.52c-.53,0-1.12-.11-1.56-.36-.45-.26-.77-.64-.8-1.22h.93c.01,.32,.25,.54,.53,.68s.64,.19,.96,.19c.62,0,1.04-.22,1.31-.57s.4-.63,.4-1.22v-.35h-.02c-.33,.66-1.04,.96-1.79,.96-.84,0-1.48-.31-1.9-.81-.42-.49-.64-1.16-.64-1.9,0-.63,.16-1.35,.57-1.9,.4-.54,1.09-.94,2.07-.94,.71,0,1.28,.3,1.62,.9h.01v-.77h.96v4.91c0,1.52-.83,2.4-2.65,2.4Zm1.34-3.32c.26-.39,.39-.91,.39-1.41,0-.47-.11-.94-.36-1.32-.25-.38-.67-.6-1.26-.6s-1.03,.23-1.3,.59c-.28,.36-.39,.85-.39,1.36s.08,.99,.33,1.38,.66,.66,1.27,.66,1.05-.27,1.32-.66Z"/><path class="cls-3" d="M107.7,10.48l.85-2.03-2.21-5.23h1.05l1.68,4.03,1.64-4.03h.98l-3.02,7.26h-.97Z"/></g><g class="cls-2"><path d="M22.78,18.29s-.05-.05-.09-.06c-.04-.01-.09-.02-.16-.02h-2.31l-.07-.18,.13-.03c.14-.04,.23-.1,.28-.16s.07-.18,.07-.35v-2.66c0-.18-.02-.3-.07-.37-.05-.07-.15-.12-.29-.16l-.14-.03,.07-.2h1.27l.08,.09-.08,.11c-.1,.12-.17,.26-.2,.4-.04,.14-.06,.33-.06,.56v2.23c0,.12,0,.22,.03,.28,.02,.06,.05,.1,.11,.12s.13,.03,.24,.03h.5c.2,0,.34-.03,.42-.1,.08-.07,.15-.2,.2-.41l.03-.13,.2,.06v1l-.12,.06-.04-.06Z"/><path d="M23.81,18.14c-.07-.09-.1-.25-.1-.47v-1.79c0-.05,0-.09-.03-.11-.02-.02-.05-.03-.09-.03h-.26l-.04-.14c.11-.1,.24-.18,.38-.25,.14-.06,.27-.09,.37-.09,.06,0,.1,.01,.14,.05s.05,.07,.05,.12v2.26c0,.13,.06,.2,.17,.2,.09,0,.19-.04,.29-.12l.11,.15c-.11,.11-.22,.2-.34,.27-.12,.07-.22,.1-.32,.1-.16,0-.27-.05-.34-.14Zm-.07-3.5c-.09-.09-.13-.17-.13-.24s.04-.15,.12-.24c.08-.09,.16-.13,.23-.13,.07,0,.15,.04,.24,.13,.08,.09,.13,.17,.13,.24s-.04,.15-.13,.24c-.09,.09-.16,.13-.24,.13-.06,0-.14-.04-.22-.13Z"/><path d="M25.97,19.7c-.15-.08-.26-.18-.34-.31-.07-.13-.11-.26-.11-.41,0-.2,.07-.36,.2-.5,.13-.14,.31-.2,.54-.2,.03,0,.06,0,.08,.01,.02,.01,.03,.02,.03,.04,0,.02-.03,.05-.08,.11-.05,.06-.1,.13-.14,.21-.04,.08-.06,.18-.06,.31,0,.15,.05,.28,.14,.39,.09,.1,.21,.16,.37,.16,.24,0,.41-.1,.52-.3,.11-.2,.17-.46,.17-.8v-.91c-.16,.22-.32,.37-.49,.47-.17,.09-.34,.14-.53,.14s-.36-.05-.52-.14-.29-.23-.38-.42-.14-.41-.14-.68c0-.5,.14-.89,.41-1.18,.27-.29,.64-.43,1.1-.43,.14,0,.35,.02,.61,.07,.04,0,.12,.01,.23,.03,.11,.02,.22,.03,.31,.04l.06,.07-.06,.11s-.05,.08-.06,.11c-.01,.03-.02,.07-.02,.12v2.52c0,.47-.11,.84-.34,1.1s-.54,.39-.94,.39c-.22,0-.4-.04-.55-.12Zm.96-2.16c.13-.09,.25-.22,.35-.4v-1.4c-.17-.11-.35-.17-.56-.17-.28,0-.5,.1-.66,.31s-.24,.5-.24,.88c0,.31,.06,.54,.19,.69,.13,.15,.29,.22,.49,.22,.15,0,.3-.04,.43-.13Z"/><path d="M30.95,18.15c-.07-.1-.1-.26-.1-.47v-1.37c0-.2-.04-.35-.12-.45s-.21-.15-.38-.15-.31,.07-.44,.2c-.13,.13-.23,.32-.3,.56-.07,.24-.11,.51-.11,.82,0,.18,.01,.32,.04,.43,.03,.11,.08,.21,.15,.31l.07,.09-.07,.09h-1.02l-.07-.18,.13-.03c.1-.02,.16-.06,.2-.12,.03-.06,.05-.17,.05-.32v-3.26s0-.08-.03-.1c-.02-.02-.05-.03-.09-.03h-.26l-.04-.15c.11-.1,.24-.19,.38-.25s.27-.1,.37-.1c.06,0,.1,.02,.14,.05s.05,.08,.05,.13v2.26c.1-.25,.25-.46,.45-.62,.2-.16,.42-.24,.64-.24,.28,0,.48,.08,.6,.25,.12,.16,.18,.43,.18,.8v1.4c0,.13,.06,.2,.17,.2,.09,0,.18-.04,.29-.11l.12,.14c-.11,.11-.22,.21-.34,.27-.12,.07-.22,.1-.32,.1-.16,0-.27-.05-.34-.15Z"/><path d="M32.75,18.14c-.09-.1-.13-.24-.13-.41v-2.04h-.5c0-.1,0-.17,.03-.2,.02-.03,.06-.06,.12-.07,.2-.05,.35-.14,.43-.26,.08-.12,.15-.28,.19-.47,0-.06,.03-.1,.06-.11,.03-.01,.1-.02,.21-.02v.78h.75c0,.08-.01,.15-.04,.22-.02,.06-.05,.11-.09,.14h-.62v1.87c0,.12,.02,.2,.05,.25,.03,.05,.09,.07,.17,.07,.11,0,.24-.06,.39-.18l.11,.15c-.1,.13-.22,.23-.36,.31s-.27,.12-.39,.12c-.16,0-.28-.05-.37-.15Z"/><path d="M35.58,19.43c-.13-.11-.2-.25-.2-.43,0-.15,.05-.27,.16-.37,.11-.1,.24-.15,.41-.15,.07,0,.11,.02,.11,.06,0,0-.02,.03-.05,.07-.03,.04-.06,.09-.08,.14-.02,.05-.04,.12-.04,.2,0,.12,.03,.21,.09,.28,.06,.07,.14,.1,.23,.1,.12,0,.21-.05,.29-.16,.08-.1,.12-.25,.12-.45v-3.04h-.51c0-.1,0-.17,.02-.2,.01-.03,.05-.06,.11-.07l.38-.08c0-.52,.09-.93,.27-1.22,.18-.29,.45-.44,.8-.44,.25,0,.46,.06,.62,.18,.16,.12,.24,.28,.24,.47,0,.16-.05,.3-.16,.4-.11,.1-.24,.16-.41,.16-.07,0-.11-.02-.11-.06,0-.01,.01-.04,.04-.08,.03-.04,.05-.09,.07-.16,.02-.06,.03-.14,.03-.24,0-.12-.03-.22-.1-.3-.07-.07-.16-.11-.28-.11-.17,0-.3,.08-.38,.25-.08,.17-.12,.4-.12,.69v.45h.82c0,.08-.01,.15-.04,.22-.02,.06-.06,.11-.1,.14h-.68v2.59c0,.4-.09,.72-.26,.95-.17,.23-.43,.35-.78,.35-.21,0-.38-.05-.51-.16Z"/><path d="M38.56,17.88c-.26-.27-.38-.64-.38-1.11s.13-.83,.38-1.1,.6-.41,1.03-.41c.29,0,.53,.06,.75,.18s.38,.3,.49,.52c.12,.23,.17,.49,.17,.8s-.06,.58-.18,.8-.28,.41-.49,.53c-.21,.12-.46,.19-.74,.19-.43,0-.78-.14-1.03-.41Zm1.61-.23c.15-.22,.23-.51,.23-.87,0-.18-.03-.37-.08-.55-.05-.18-.14-.34-.25-.47-.12-.13-.27-.19-.46-.19-.25,0-.45,.11-.6,.33-.15,.22-.23,.52-.23,.88s.07,.66,.21,.88c.14,.22,.34,.33,.58,.33s.44-.11,.59-.33Z"/><path d="M41.55,18.03l.11-.03c.1-.02,.17-.06,.2-.12,.03-.06,.05-.17,.05-.32v-1.62s0-.08-.02-.1c-.02-.02-.05-.03-.09-.03h-.25l-.06-.15c.11-.1,.24-.18,.38-.25,.14-.06,.27-.09,.38-.09,.06,0,.1,.02,.13,.05,.03,.03,.05,.08,.05,.13v.63h.03c.07-.26,.17-.47,.31-.63s.29-.24,.45-.24,.3,.05,.4,.16c.1,.1,.16,.25,.16,.43,0,.14-.05,.27-.16,.36-.11,.1-.24,.15-.4,.15-.08,0-.11-.02-.11-.06,0-.01,.01-.04,.04-.09,.03-.05,.05-.09,.08-.14s.03-.1,.03-.17c0-.07-.02-.13-.05-.17-.03-.04-.08-.06-.13-.06-.09,0-.18,.06-.28,.17-.1,.11-.18,.29-.25,.53-.07,.24-.1,.55-.1,.93,0,.17,.01,.32,.04,.42s.08,.21,.14,.3l.07,.09-.07,.09h-1.02l-.06-.18Z"/><path d="M46.43,18.14c-.07-.09-.1-.25-.1-.47v-3.37s0-.08-.03-.1c-.02-.02-.05-.03-.09-.03h-.25l-.06-.15c.11-.1,.24-.19,.38-.25s.27-.1,.39-.1c.05,0,.1,.02,.13,.05,.03,.03,.05,.08,.05,.13v3.83c-.01,.06,0,.11,.03,.15,.03,.03,.07,.05,.13,.05,.11,0,.2-.04,.29-.12l.11,.15c-.1,.11-.21,.2-.33,.27-.12,.07-.23,.1-.32,.1-.16,0-.28-.05-.35-.14Z"/><path d="M48.23,18.14c-.07-.09-.1-.25-.1-.47v-1.79c0-.05,0-.09-.03-.11-.02-.02-.05-.03-.09-.03h-.26l-.04-.14c.11-.1,.24-.18,.38-.25,.14-.06,.27-.09,.37-.09,.05,0,.1,.01,.14,.05s.05,.07,.05,.12v2.26c0,.13,.06,.2,.17,.2,.09,0,.19-.04,.29-.12l.11,.15c-.11,.11-.22,.2-.33,.27-.12,.07-.22,.1-.32,.1-.16,0-.27-.05-.34-.14Zm-.07-3.5c-.08-.09-.13-.17-.13-.24s.04-.15,.12-.24c.08-.09,.16-.13,.23-.13,.07,0,.15,.04,.24,.13s.13,.17,.13,.24-.04,.15-.13,.24-.16,.13-.24,.13c-.06,0-.14-.04-.22-.13Z"/><path d="M48.89,19.43c-.13-.11-.2-.25-.2-.43,0-.15,.05-.27,.16-.37,.11-.1,.24-.15,.41-.15,.07,0,.11,.02,.11,.06,0,0-.01,.03-.05,.07-.03,.04-.06,.09-.08,.14-.02,.05-.03,.12-.03,.2,0,.12,.03,.21,.09,.28,.06,.07,.14,.1,.23,.1,.11,0,.21-.05,.29-.16,.08-.1,.12-.25,.12-.45v-3.04h-.51c0-.1,0-.17,.02-.2,.01-.03,.05-.06,.11-.07l.38-.08c0-.52,.09-.93,.27-1.22,.18-.29,.45-.44,.8-.44,.25,0,.46,.06,.62,.18,.16,.12,.24,.28,.24,.47,0,.16-.05,.3-.16,.4-.11,.1-.24,.16-.41,.16-.07,0-.11-.02-.11-.06,0-.01,.01-.04,.04-.08s.05-.09,.07-.16c.02-.06,.03-.14,.03-.24,0-.12-.03-.22-.1-.3-.07-.07-.16-.11-.28-.11-.17,0-.3,.08-.38,.25s-.12,.4-.12,.69v.45h.82c0,.08-.01,.15-.04,.22-.02,.06-.06,.11-.1,.14h-.68v2.59c0,.4-.09,.72-.26,.95-.17,.23-.43,.35-.78,.35-.21,0-.38-.05-.51-.16Z"/><path d="M52.12,18.1c-.2-.12-.36-.3-.47-.52s-.17-.48-.17-.78,.06-.58,.18-.81c.12-.23,.3-.41,.53-.54,.23-.13,.49-.19,.79-.19,.32,0,.56,.08,.73,.25s.26,.37,.26,.6c0,.16-.04,.32-.13,.47-.09,.15-.22,.27-.38,.36-.17,.09-.36,.14-.59,.14-.13,0-.27-.02-.42-.07s-.22-.11-.22-.2c0-.03,0-.06,.02-.09,.02-.02,.04-.04,.06-.04,.01,0,.05,.01,.12,.04,.07,.02,.15,.03,.26,.03,.23,0,.42-.06,.54-.19s.19-.28,.19-.46c0-.15-.05-.29-.15-.4s-.23-.17-.4-.17c-.25,0-.45,.11-.59,.33-.14,.22-.21,.53-.21,.94,0,.34,.07,.61,.22,.81,.15,.19,.36,.29,.63,.29,.34,0,.62-.11,.84-.33,.01-.01,.03-.02,.05-.02,.03,0,.07,.02,.1,.05,.04,.03,.05,.07,.05,.11,0,.01,0,.02-.01,.03,0,0-.01,.02-.01,.02-.14,.17-.32,.3-.51,.39-.2,.09-.41,.13-.63,.13-.27,0-.5-.06-.7-.19Z"/></g><path class="cls-1" d="M6.39,15.74c-.16-.11-.17-.17-.09-.38,.72-1.71,1.44-3.42,2.16-5.13,.02-.04,.03-.08,.05-.14h-.13c-.62,0-1.25,0-1.87,0-.25,0-.33-.13-.22-.35,.99-1.98,1.98-3.96,2.97-5.93,.06-.12,.14-.17,.28-.17,1.03,0,2.07,0,3.1,0,.1,0,.19,.01,.24,.11,.05,.1,0,.18-.04,.26-.74,1.17-1.48,2.34-2.23,3.51-.03,.04-.05,.09-.1,.15,.06,0,.1,0,.14,0,.71,0,1.41,0,2.12,0,.04,0,.07,0,.11,0,.09,0,.17,.03,.21,.12,.04,.09,.01,.16-.05,.23-.27,.33-.55,.65-.82,.98-1.83,2.18-3.66,4.35-5.5,6.53-.07,.08-.14,.14-.21,.22h-.12Z"/></svg>