<?xml version="1.0" encoding="UTF-8"?><svg id="Layer_1" xmlns="http://www.w3.org/2000/svg" viewBox="0 0 80.2 21.02"><defs><style>.cls-1{fill:#fff;}.cls-2{fill:#a8800e;}</style></defs><path class="cls-2" d="M9.7,.26h9.67V9.93c0,5.35-4.34,9.7-9.7,9.7H0V9.95C0,4.6,4.34,.26,9.7,.26Z"/><path class="cls-2" d="M24.08,7.36c1.28,0,1.99-.53,1.99-1.32s-.45-1.13-1.5-1.33l-1.57-.3c-1.32-.25-1.98-.94-1.98-2.09,0-1.39,1.07-2.32,2.92-2.32s3.03,.91,3.05,2.71h-.99c-.03-1.31-.84-1.87-2.07-1.87s-1.85,.56-1.85,1.36,.42,1.07,1.43,1.26l1.44,.28c1.47,.28,2.17,.91,2.17,2.25s-1.2,2.23-3.06,2.23-3.26-.88-3.27-2.74h.98c.03,.71,.26,.94,.7,1.32s.97,.56,1.61,.56Z"/><path class="cls-2" d="M31.27,2.44c1.59-.01,2.53,1.2,2.53,2.89s-.93,2.91-2.52,2.91c-.98,0-1.72-.34-1.97-1.08v3.06h-1.04V2.59h1.02v.95c.27-.74,1.02-1.1,1.98-1.1Zm-.21,4.95c1.05,0,1.66-.79,1.66-2.06s-.61-2.06-1.66-2.06-1.77,.74-1.77,1.91v.31c0,1.17,.72,1.9,1.77,1.9Z"/><path class="cls-2" d="M37.24,8.21c-1.5,0-2.72-1.12-2.72-2.83s1.17-2.97,2.81-2.97,2.61,1.17,2.61,2.74v.41h-4.37c.05,1.06,.81,1.82,1.8,1.82,.9,0,1.46-.24,1.69-1.09h.87c-.15,.63-.44,1.04-.88,1.39s-1.04,.53-1.79,.53Zm.07-5.01c-.96,0-1.6,.73-1.72,1.69h3.34c-.02-.48-.22-.88-.49-1.2-.27-.33-.64-.48-1.13-.48Z"/><path class="cls-2" d="M43.42,8.21c-1.5,0-2.72-1.12-2.72-2.83s1.17-2.97,2.81-2.97,2.61,1.17,2.61,2.74v.41h-4.37c.05,1.06,.81,1.82,1.8,1.82,.9,0,1.46-.24,1.69-1.09h.87c-.15,.63-.44,1.04-.88,1.39s-1.04,.53-1.79,.53Zm.07-5.01c-.96,0-1.6,.73-1.72,1.69h3.34c-.02-.48-.22-.88-.49-1.2s-.64-.48-1.13-.48Z"/><path class="cls-2" d="M49.36,8.21c-1.59-.01-2.53-1.2-2.53-2.89s.93-2.92,2.52-2.91c.98,0,1.72,.34,1.97,1.08V.15h1.04v7.91h-1.02v-.95c-.27,.74-1.02,1.11-1.98,1.1Zm.21-4.95c-1.05,0-1.66,.79-1.66,2.06s.61,2.06,1.66,2.06,1.77-.74,1.77-1.91v-.31c0-1.17-.72-1.9-1.77-1.9Z"/><path class="cls-2" d="M57.19,.15V7.16h4.41v.9h-5.5V.15h1.09Z"/><path class="cls-2" d="M62.61,.15h1.08V1.33h-1.08V.15Zm1.07,2.42v5.49h-1.04V2.57h1.04Z"/><path class="cls-2" d="M67.39,10.21c-.55,0-1.17-.11-1.63-.37-.47-.27-.81-.67-.84-1.28h.98c.01,.34,.26,.57,.56,.71s.67,.2,1,.2c.64,0,1.09-.23,1.37-.6s.42-.66,.42-1.28v-.37h-.02c-.34,.69-1.09,1.01-1.87,1.01-.88,0-1.55-.33-1.99-.85-.44-.52-.67-1.21-.67-1.99,0-.66,.17-1.41,.6-1.99,.42-.56,1.14-.98,2.17-.98,.75,0,1.34,.32,1.7,.94h.01v-.8h1.01V7.71c0,1.6-.87,2.51-2.78,2.51Zm1.4-3.48c.28-.41,.4-.96,.4-1.48,0-.49-.12-.99-.38-1.38s-.71-.63-1.32-.63-1.07,.24-1.36,.62-.4,.89-.4,1.42,.09,1.04,.35,1.45,.69,.69,1.33,.69,1.1-.28,1.38-.69Z"/><path class="cls-2" d="M71.05,8.06V.15h1.04V3.48c.27-.67,.99-1.07,1.82-1.07,1.37,0,2.01,.89,2.01,2.24v3.4h-1.04v-3.32c0-.94-.44-1.49-1.29-1.49s-1.49,.67-1.49,1.66v3.15h-1.04Z"/><path class="cls-2" d="M76.63,3.33v-.75h.87V1.05h.99v1.52h1.55v.75h-1.55v3.33c0,.96,.94,.77,1.71,.34v.75c-.82,.62-2.74,.94-2.74-.97V3.33h-.83Z"/><path class="cls-2" d="M26.5,18.87h-5.64v-7.91h5.53v.9h-4.47v2.49h4.08v.89h-4.08v2.73h4.58v.9Z"/><path class="cls-2" d="M27.69,18.87v-5.49h1.04v.98c.27-.67,.99-1.13,1.82-1.13,1.37,0,2.01,.89,2.01,2.24v3.4h-1.04v-3.32c0-.94-.44-1.49-1.29-1.49s-1.49,.67-1.49,1.66v3.15h-1.04Z"/><path class="cls-2" d="M36.28,19.02c-1.5,0-2.72-1.12-2.72-2.83s1.17-2.97,2.81-2.97,2.61,1.17,2.61,2.74v.41h-4.37c.05,1.06,.81,1.82,1.8,1.82,.9,0,1.46-.24,1.69-1.09h.87c-.15,.63-.44,1.04-.88,1.39-.44,.35-1.04,.53-1.79,.53Zm.07-5.01c-.96,0-1.6,.73-1.72,1.69h3.34c-.02-.48-.22-.88-.49-1.2-.27-.33-.64-.48-1.13-.48Z"/><path class="cls-2" d="M41.07,14.54h.02c.49-.89,1.07-1.3,2.17-1.27v.96c-.81,0-1.32,.19-1.67,.56-.36,.37-.5,.93-.5,1.63v2.44h-1.02v-5.47h1v1.15Z"/><path class="cls-2" d="M46.63,21.02c-.55,0-1.17-.11-1.63-.37-.47-.27-.81-.67-.84-1.28h.98c.01,.34,.26,.57,.56,.71s.67,.2,1,.2c.64,0,1.09-.23,1.37-.6s.42-.66,.42-1.28v-.37h-.02c-.34,.69-1.09,1.01-1.87,1.01-.88,0-1.55-.33-1.99-.85-.44-.52-.67-1.21-.67-1.99,0-.66,.17-1.41,.6-1.99,.42-.56,1.14-.98,2.17-.98,.75,0,1.34,.32,1.7,.94h.01v-.8h1.01v5.14c0,1.6-.87,2.51-2.78,2.51Zm1.4-3.48c.28-.41,.4-.96,.4-1.48,0-.49-.12-.99-.38-1.38-.26-.39-.71-.63-1.32-.63s-1.07,.24-1.36,.62c-.29,.38-.4,.89-.4,1.42s.09,1.04,.35,1.45,.69,.69,1.33,.69,1.1-.28,1.38-.69Z"/><path class="cls-2" d="M51.06,20.98l.89-2.12-2.31-5.48h1.1l1.76,4.22,1.72-4.22h1.03l-3.17,7.6h-1.02Z"/><path class="cls-1" d="M6.39,16c-.16-.11-.17-.17-.09-.38,.72-1.71,1.44-3.42,2.16-5.13,.02-.04,.03-.08,.05-.14h-.13c-.62,0-1.25,0-1.87,0-.25,0-.33-.13-.22-.35,.99-1.98,1.98-3.96,2.97-5.93,.06-.12,.14-.17,.28-.17,1.03,0,2.07,0,3.1,0,.1,0,.19,.01,.24,.11,.05,.1,0,.18-.04,.26-.74,1.17-1.48,2.34-2.23,3.51-.03,.04-.05,.09-.1,.15,.06,0,.1,0,.14,0,.71,0,1.41,0,2.12,0,.04,0,.07,0,.11,0,.09,0,.17,.03,.21,.12,.04,.09,.01,.16-.05,.23-.27,.33-.55,.65-.82,.98-1.83,2.18-3.66,4.35-5.5,6.53-.07,.08-.14,.14-.21,.22h-.12Z"/></svg>