<?xml version="1.0" encoding="utf-8"?>
<!-- Generator: Adobe Illustrator 26.4.1, SVG Export Plug-In . SVG Version: 6.00 Build 0)  -->
<svg version="1.1" id="Layer_1" xmlns="http://www.w3.org/2000/svg" xmlns:xlink="http://www.w3.org/1999/xlink" x="0px" y="0px"
	 viewBox="0 0 113.4 113.4" style="enable-background:new 0 0 113.4 113.4;" xml:space="preserve">
<style type="text/css">
	.st0{fill:#A8800E;}
	.st1{fill:#FFFFFF;}
</style>
<g>
	<path class="st0" d="M56.8,1.1h55.5v55.5c0,30.7-24.9,55.7-55.7,55.7H1.1V56.8C1.1,26,26,1.1,56.8,1.1z"/>
	<path class="st1" d="M37.8,91.5c-0.9-0.6-1-1-0.5-2.2c4.1-9.8,8.3-19.6,12.4-29.5c0.1-0.2,0.2-0.5,0.3-0.8h-0.7
		c-3.6,0-7.2,0-10.7,0c-1.4,0-1.9-0.7-1.3-2C42.9,45.6,48.6,34.3,54.3,23c0.3-0.7,0.8-1,1.6-1c5.9,0,11.9,0,17.8,0
		c0.6,0,1.1,0.1,1.4,0.6c0.3,0.6,0,1-0.2,1.5c-4.2,6.7-8.5,13.4-12.8,20.2c-0.2,0.2-0.3,0.5-0.6,0.9c0.3,0,0.6,0,0.8,0
		c4.1,0,8.1,0,12.2,0c0.2,0,0.4,0,0.6,0c0.5,0,1,0.2,1.2,0.7s0.1,0.9-0.3,1.3c-1.6,1.9-3.2,3.7-4.7,5.6c-10.5,12.5-21,25-31.6,37.5
		c-0.4,0.5-0.8,0.8-1.2,1.3L37.8,91.5L37.8,91.5z"/>
</g>
</svg>
